<?xml version="1.0" encoding="UTF-8"?>
<!DOCTYPE svg PUBLIC "-//W3C//DTD SVG 1.1//EN" "http://www.w3.org/Graphics/SVG/1.1/DTD/svg11.dtd">
<!-- Creator: CorelDRAW X7 -->
<svg xmlns="http://www.w3.org/2000/svg" xml:space="preserve" width="152.4mm" height="152.4mm" version="1.1" style="shape-rendering:geometricPrecision; text-rendering:geometricPrecision; image-rendering:optimizeQuality; fill-rule:evenodd; clip-rule:evenodd"
viewBox="0 0 15240 15240"
 xmlns:xlink="http://www.w3.org/1999/xlink">
 <defs>
  <style type="text/css">
   <![CDATA[
    .fil1 {fill:#FEFEFE}
    .fil0 {fill:#5DC7C8}
   ]]>
  </style>
 </defs>
 <g id="Layer_x0020_1">
  <metadata id="CorelCorpID_0Corel-Layer"/>
  <circle class="fil0" cx="7620" cy="7620" r="7620"/>
  <path class="fil1" d="M4151 4043c-2082,557 -2898,3147 -1280,5340 407,552 824,1004 1313,1474 764,736 2343,1824 3211,2367 290,181 234,126 843,-256l1641 -1147c257,-202 529,-393 777,-640l711 -660c1223,-1258 2410,-2937 1582,-4838 -912,-2091 -3478,-2273 -4791,-496 -73,99 -223,350 -289,419 -458,483 -603,-438 -1489,-1101 -500,-375 -1438,-673 -2229,-462zm5502 5091c92,-197 325,-281 522,-189 196,91 280,325 189,521 -251,533 -643,969 -1119,1271 -477,303 -1038,473 -1625,473 -588,0 -1149,-170 -1626,-474 -476,-302 -868,-739 -1119,-1273 -91,-196 -7,-429 189,-521 197,-91 430,-7 522,189 184,393 475,716 829,941 353,225 769,350 1205,350 435,0 851,-125 1204,-349 354,-225 645,-547 829,-939zm-753 -2462c118,-118 281,-191 461,-191 179,0 342,73 460,191 117,118 190,280 190,460 0,180 -73,342 -190,460 -118,118 -281,191 -460,191 -180,0 -343,-73 -461,-191 -117,-118 -190,-280 -190,-460 0,-180 73,-342 190,-460zm-3043 -192c180,0 343,73 461,190 117,118 190,281 190,460 0,180 -73,343 -190,461 -118,117 -281,190 -461,190 -179,0 -342,-73 -460,-190 -117,-118 -190,-281 -190,-461 0,-179 73,-342 190,-460 118,-117 281,-190 460,-190z"/>
 </g>
</svg>
