<?xml version="1.0" encoding="UTF-8"?>
<!DOCTYPE svg PUBLIC "-//W3C//DTD SVG 1.1//EN" "http://www.w3.org/Graphics/SVG/1.1/DTD/svg11.dtd">
<!-- Creator: CorelDRAW X7 -->
<svg xmlns="http://www.w3.org/2000/svg" xml:space="preserve" width="23.3858in" height="23.3858in" version="1.1" style="shape-rendering:geometricPrecision; text-rendering:geometricPrecision; image-rendering:optimizeQuality; fill-rule:evenodd; clip-rule:evenodd"
viewBox="0 0 23386 23386"
 xmlns:xlink="http://www.w3.org/1999/xlink">
 <defs>
  <style type="text/css">
   <![CDATA[
    .str0 {stroke:#2B2A29;stroke-width:6.94488}
    .fil1 {fill:#FEFEFE}
    .fil0 {fill:#1A1A1A}
   ]]>
  </style>
 </defs>
 <g id="Layer_x0020_1">
  <metadata id="CorelCorpID_0Corel-Layer"/>
  <g id="_1460163970560">
   <circle class="fil0 str0" cx="11693" cy="11693" r="11007"/>
   <g>
    <path class="fil1" d="M14979 18717l22 -602c12,-335 34,-540 395,-856l1795 -1899c630,-712 1334,-1213 1564,-2172 152,-638 121,-5133 44,-5415 -119,-436 -629,-794 -1186,-549 -526,231 -500,714 -500,1364 0,287 2,2475 43,2761 81,77 310,163 477,429 293,466 270,982 -54,1357l-1765 1930c-177,191 -373,550 -381,818l-526 -3c-25,-69 -24,-134 -15,-206 75,-726 1162,-1670 1647,-2180 277,-323 729,-650 709,-1072 -15,-324 -246,-572 -535,-625 -479,-86 -592,166 -792,359l-1214 1174c-208,196 -383,381 -584,587 -666,684 -1926,1744 -2153,2534 -109,382 -121,1829 -67,2276l3076 -10z"/>
    <path class="fil1" d="M8407 18717l-22 -602c-12,-335 -34,-540 -395,-856l-1795 -1899c-630,-712 -1334,-1213 -1564,-2172 -153,-638 -121,-5133 -44,-5415 119,-436 629,-794 1186,-549 526,231 500,714 500,1364 0,287 -2,2475 -43,2761 -81,77 -310,163 -477,429 -293,466 -270,982 54,1357l1765 1930c176,191 372,550 381,818l526 -3c25,-69 24,-134 15,-206 -75,-726 -1163,-1670 -1648,-2180 -277,-323 -728,-650 -708,-1072 15,-324 245,-572 535,-625 479,-86 592,166 791,359l1215 1174c208,196 383,381 584,587 666,684 1926,1744 2152,2534 110,382 122,1829 68,2276l-3076 -10z"/>
   </g>
   <path class="fil1" d="M11575 11259c-803,-776 -3133,-2973 -3374,-3573 -616,-1536 1085,-3033 2551,-2198 419,239 784,634 941,834 157,-200 521,-595 941,-834 1466,-835 3166,662 2550,2198 -240,600 -2569,2795 -3372,3572 -80,74 -177,57 -237,1z"/>
  </g>
 </g>
</svg>
