<?xml version="1.0" encoding="UTF-8"?>
<!DOCTYPE svg PUBLIC "-//W3C//DTD SVG 1.1//EN" "http://www.w3.org/Graphics/SVG/1.1/DTD/svg11.dtd">
<!-- Creator: CorelDRAW X7 -->
<svg xmlns="http://www.w3.org/2000/svg" xml:space="preserve" width="23.3858in" height="23.3858in" version="1.1" style="shape-rendering:geometricPrecision; text-rendering:geometricPrecision; image-rendering:optimizeQuality; fill-rule:evenodd; clip-rule:evenodd"
viewBox="0 0 23386 23386"
 xmlns:xlink="http://www.w3.org/1999/xlink">
 <defs>
  <style type="text/css">
   <![CDATA[
    .str0 {stroke:#2B2A29;stroke-width:6.94488}
    .fil1 {fill:#FEFEFE}
    .fil0 {fill:#1A1A1A}
   ]]>
  </style>
 </defs>
 <g id="Layer_x0020_1">
  <metadata id="CorelCorpID_0Corel-Layer"/>
  <g id="_1460161407840">
   <circle class="fil0 str0" cx="11693" cy="11693" r="11028"/>
   <path class="fil1" d="M18199 7420c650,991 1084,2136 1235,3369 -221,191 -614,283 -1312,562 -1139,455 -2251,872 -3352,1378 -229,105 -477,114 -766,160 -974,154 -4360,840 -4819,636 -390,-173 -745,-710 -506,-1294 203,-493 577,-567 1159,-680l3124 -627c-186,-409 -522,-731 -871,-973 -1008,-698 -1989,-300 -3012,-19 -649,178 -891,146 -1271,570l-1813 1933c-979,831 -2195,-436 -1441,-1377l908 -998c509,-506 1301,-1565 1907,-1836 374,-167 976,-327 1383,-462 888,-293 1958,-797 2954,-680 1120,132 2228,262 3352,394 1414,166 1861,355 3141,-56z"/>
   <path class="fil1" d="M7448 18518c-573,-555 -2239,-2125 -2411,-2554 -440,-1098 776,-2168 1824,-1571 299,171 560,453 672,596 112,-143 373,-425 672,-596 1048,-597 2264,473 1824,1571 -172,429 -1837,1998 -2411,2553 -57,53 -126,41 -170,1z"/>
   <path class="fil1" d="M7448 18518c-573,-555 -2239,-2125 -2411,-2554 -440,-1098 776,-2168 1824,-1571 299,171 560,453 672,596 112,-143 373,-425 672,-596 1048,-597 2264,473 1824,1571 -172,429 -1837,1998 -2411,2553 -57,53 -126,41 -170,1z"/>
  </g>
 </g>
</svg>
