<?xml version="1.0" encoding="UTF-8"?>
<!DOCTYPE svg PUBLIC "-//W3C//DTD SVG 1.1//EN" "http://www.w3.org/Graphics/SVG/1.1/DTD/svg11.dtd">
<!-- Creator: CorelDRAW X7 -->
<svg xmlns="http://www.w3.org/2000/svg" xml:space="preserve" width="152.4mm" height="152.4mm" version="1.1" style="shape-rendering:geometricPrecision; text-rendering:geometricPrecision; image-rendering:optimizeQuality; fill-rule:evenodd; clip-rule:evenodd"
viewBox="0 0 15240 15240"
 xmlns:xlink="http://www.w3.org/1999/xlink">
 <defs>
  <style type="text/css">
   <![CDATA[
    .fil1 {fill:#FEFEFE}
    .fil0 {fill:#5DC7C8}
   ]]>
  </style>
 </defs>
 <g id="Layer_x0020_1">
  <metadata id="CorelCorpID_0Corel-Layer"/>
  <circle class="fil0" cx="7620" cy="7620" r="7620"/>
  <path class="fil1" d="M9336 4985c-28,395 -451,1480 -637,1853 -657,1318 -1652,2335 -2811,3229 -703,580 -1055,1486 -1244,2347 23,170 238,316 529,291 153,-747 262,-1155 550,-1641 655,-9 804,110 1672,-27 638,-101 1360,-383 1859,-750 149,-109 349,-260 475,-386 161,-163 285,-282 424,-453 721,-893 1136,-1915 1135,-3225 0,-514 -72,-1093 -189,-1557 -64,-254 -316,-1116 -444,-1284 -55,-190 -289,-574 -403,-774 -60,-108 -43,-79 -92,-89 -59,138 -866,690 -1062,809 -416,251 -845,369 -1307,576 -222,99 -434,186 -644,298 -103,55 -200,104 -308,161 -266,139 -633,383 -865,549 -911,648 -1709,1647 -1909,2818 -156,911 -35,1606 269,2435 54,146 233,573 337,622l259 -375c423,-531 457,-493 983,-917 782,-631 1289,-1132 1919,-1897 417,-506 686,-975 1013,-1535 92,-157 459,-1048 491,-1078z"/>
 </g>
</svg>
