<?xml version="1.0" encoding="utf-8"?>
<!-- Generator: Adobe Illustrator 16.0.0, SVG Export Plug-In . SVG Version: 6.00 Build 0)  -->
<!DOCTYPE svg PUBLIC "-//W3C//DTD SVG 1.1//EN" "http://www.w3.org/Graphics/SVG/1.1/DTD/svg11.dtd">
<svg version="1.1" id="Layer_1" xmlns="http://www.w3.org/2000/svg" xmlns:xlink="http://www.w3.org/1999/xlink" x="0px" y="0px"
	 width="432px" height="432px" viewBox="0 0 432 432" enable-background="new 0 0 432 432" xml:space="preserve">
<circle fill="#FFFFFF" cx="216" cy="216" r="216"/>
<path fill="#5DC7C8" d="M216,432c119.281,0,216-96.719,216-216C432,96.718,335.281,0,216,0C96.718,0,0,96.718,0,216
	C0,335.281,96.718,432,216,432z"/>
<g>
	<path fill="#FFFFFF" d="M125.546,297.496c0.369,3.316,2.778,10.63,4.167,13.606c0.964,2.068,1.928,3.685,3.146,5.527
		c1.843,2.777,4.45,5.442,7.059,7.512l1.247,0.851c4.989,3.656,10.743,5.867,16.696,7.483l4.705,0.964
		c9.411,1.247,13.861,1.134,24.634-0.113c1.275-0.171,2.721-0.454,3.968-0.426l7.881-0.453c2.664,0,5.159-0.341,7.767-0.284
		c1.332,0.028,2.466-0.057,3.799-0.057c2.409,0.028,5.102,0.028,7.512,0.028c12.245-0.028,24.18,0.737,36.34,1.39
		c4.11,0.227,8.447,1.077,12.671,0.255c0.652-0.142,1.134-0.283,1.984-0.368c8.787-1.021,18.227-4.763,24.973-10.262
		c0.426-0.34,0.652-0.596,1.078-0.964c0.425-0.396,0.708-0.652,1.105-1.049c3.515-3.656,6.094-7.738,7.795-12.558
		c1.19-3.345,2.211-9.042,1.644-13.748c-0.851-7.285-1.984-10.771-5.017-16.951c-1.758-3.515-4.876-8.419-7.427-10.913
		c-0.964-0.936-2.211-1.843-3.118-2.778c-1.021-1.049-2.154-1.757-3.203-2.749l-3.94-3.459c-0.255-0.255-0.51-0.396-0.794-0.651
		c-2.041-1.588-7.427-6.435-9.439-8.334l-12.813-14.06c-3.486-4.11-6.661-8.476-9.949-12.728c-0.283-0.341-0.426-0.539-0.681-0.879
		l-6.435-8.731c-0.453-0.651-0.851-1.134-1.275-1.757c-1.701-2.438-5.018-5.641-7.398-7.54c-0.312-0.227-0.567-0.397-0.822-0.652
		c-1.304-1.162-2.721-2.183-4.11-3.231c-1.134-0.851-2.353-1.559-3.6-2.211c-3.458-1.758-7.37-2.494-11.311-2.608
		c-7.001-0.198-14.484,3.799-19.275,8.306c-2.069,1.984-3.827,4.054-5.499,6.35l-16.413,24.406
		c-1.559,2.269-3.486,4.451-5.272,6.521l-5.867,6.037c-0.567,0.539-1.077,0.907-1.645,1.39c-1.672,1.389-3.458,2.636-5.301,3.826
		c-3.486,2.268-8.249,4.961-11.338,7.059l-3.459,2.607c-1.644,1.333-3.175,2.807-4.648,4.337c-2.409,2.552-4.365,5.528-5.953,8.646
		c-2.098,4.138-2.891,8.419-3.628,13.152C125.631,289.956,125.15,294.152,125.546,297.496z"/>
	<path fill="#FFFFFF" d="M223.625,161.461c0.538,4.621,0.794,7.342,2.409,11.82c1.021,2.75,2.495,5.896,4.167,8.107l2.183,2.607
		c0.426,0.426,0.766,0.794,1.219,1.22c1.22,1.134,2.637,2.013,4.082,2.834c0.482,0.284,1.077,0.511,1.588,0.737
		c4.422,1.899,10.658,1.445,15.618-0.737c4.167-1.842,9.553-5.896,12.473-9.354c7.115-8.39,10.347-14.428,13.946-25.256
		c0.822-2.495,1.814-6.236,2.212-8.845c0.113-0.623,0.255-1.162,0.34-1.899c1.275-9.779,1.474-20.919-2.58-30.16
		c-2.438-5.471-3.826-7.229-7.54-10.715l-3.6-2.239c-5.442-2.58-10.913-2.467-16.47-0.085c-2.947,1.247-5.754,2.919-8.191,4.932
		c-2.467,2.013-2.863,2.722-4.848,4.649c-0.567,0.566-0.907,1.134-1.502,1.729c-0.964,0.964-3.033,4.11-3.94,5.386l-4.479,7.881
		l-1.871,4.224c-3.203,8.419-4.252,13.124-5.244,21.6C223.229,152.929,223.257,158.315,223.625,161.461z"/>
	<path fill="#FFFFFF" d="M87.307,180.029l0.907,7.625c0.113,1.077,0.368,1.673,0.567,2.636c0.396,1.984,1.53,5.755,2.154,7.569
		c3.032,8.787,7.653,16.979,13.634,24.037c2.212,2.608,4.933,5.386,7.569,7.483c3.288,2.608,7.001,5.329,10.941,6.747l2.183,0.793
		c6.803,2.523,14.542,1.673,20.098-3.061c4.933-4.167,7.427-11.056,8.277-17.49c0.227-1.786,0.368-3.741,0.312-5.697
		c-0.227-7.342-0.681-10.488-2.721-17.632c-0.454-1.645-1.135-3.43-1.758-4.989l-1.984-4.705c-2.75-5.84-5.754-11.339-9.949-16.271
		c-1.021-1.191-1.871-2.212-2.948-3.346l-6.633-6.009c-0.313-0.256-0.511-0.426-0.822-0.681c-3.401-2.551-7.03-4.563-11.056-5.981
		c-4.762-1.7-10.998-1.927-15.675,0.199c-1.418,0.651-2.863,1.502-3.969,2.466c-3.345,2.835-6.095,6.774-7.257,11.026l-0.652,2.268
		c-1.021,4.195-1.021,6.066-1.219,10.233C87.279,178.242,87.194,178.98,87.307,180.029z"/>
	<path fill="#FFFFFF" d="M150.293,144.482c0.821,7.002,1.956,13.039,4.394,19.503c1.984,5.216,3.628,8.532,6.604,13.124
		c0.34,0.51,0.652,0.879,0.964,1.389c0.964,1.446,2.126,2.778,3.231,4.082c1.332,1.56,2.863,3.033,4.479,4.309l3.09,2.211
		c8.221,4.989,16.725,5.244,24.321-1.275c0.766-0.681,1.729-1.615,2.353-2.409c0.652-0.822,1.475-1.758,2.069-2.608
		c0.624-0.964,1.162-1.87,1.701-2.891c2.807-5.528,4.422-10.772,5.244-17.122c1.445-11.026-0.142-24.009-4.11-34.44
		c-1.219-3.175-3.118-7.738-4.961-10.63c-1.87-2.948-2.777-4.535-5.188-7.398c-1.389-1.616-3.345-3.686-5.045-5.018
		c-1.729-1.36-2.211-1.786-4.28-3.005c-2.382-1.36-4.139-2.069-6.889-2.636c-3.94-0.851-4.28-0.511-8.107-0.057
		c-0.623,0.057-4.309,1.729-5.301,2.353c-2.494,1.53-5.386,4.195-7.029,6.689c-0.17,0.284-0.142,0.313-0.341,0.596l-0.821,1.275
		c-1.219,2.041-1.475,2.552-2.467,4.734c-1.87,4.109-3.118,9.382-3.713,14.173C149.924,133.739,149.698,139.379,150.293,144.482z"/>
	<path fill="#FFFFFF" d="M279.383,216.538c0.708,5.925,1.729,10.092,4.903,14.967c0.851,1.276,1.475,2.013,2.467,3.062l1.304,1.247
		c0.538,0.539,0.964,0.709,1.53,1.134c0.879,0.652,2.324,1.446,3.43,1.814c7.683,2.778,13.918,1.162,21.062-2.777l4.224-2.75
		c1.304-0.992,2.58-2.041,3.771-3.09c3.373-3.033,6.746-7.087,9.411-10.771c1.134-1.531,3.6-5.527,4.45-7.172
		c0.198-0.425,0.34-0.737,0.566-1.105c3.629-6.293,6.804-16.895,7.768-24.236c1.304-10.176,0.283-22.507-7.087-30.302
		c-3.827-4.025-9.411-6.151-15.364-5.443c-3.486,0.397-6.689,1.191-9.666,2.778c-3.146,1.701-5.669,3.175-8.447,5.471
		c-4.875,4.082-6.009,5.584-9.921,10.488c-2.777,3.515-6.633,10.403-8.532,14.627c-1.105,2.466-2.807,6.916-3.515,9.496
		c-0.907,3.458-1.786,6.888-2.126,10.46C279.298,208.091,278.901,212.315,279.383,216.538z"/>
</g>
</svg>
