<?xml version="1.0" encoding="utf-8"?>
<!-- Generator: Adobe Illustrator 19.0.0, SVG Export Plug-In . SVG Version: 6.00 Build 0)  -->
<svg version="1.1" id="Layer_1" xmlns="http://www.w3.org/2000/svg" xmlns:xlink="http://www.w3.org/1999/xlink" x="0px" y="0px"
	 viewBox="-107 361 432 432" style="enable-background:new -107 361 432 432;" xml:space="preserve">
<style type="text/css">
	.st0{fill:#5DC7C8;}
	.st1{fill:#FEFEFE;}
</style>
<g id="Layer_x0020_1">
	<circle class="st0" cx="109" cy="577" r="216"/>
	<g id="_2129547500720">
		<path class="st1" d="M232,682.4c-15.4,17.9-34.6,32.4-56.4,42.3c-0.3-0.4-0.7-0.8-1-1.2c-2.1-2.7-14.3-16.3-17.3-20.2
			c-14-18.2-24.1-32-33.4-55c-10.7-26.5-8.5-52.2-8.9-81.2c-0.1-3.8-0.2-9.6,0.1-14.9c0.7-10.8,7.6-18.9,16.7-18.7
			c7.6,0.1,15.7,5.3,19.2,18.7c6.8,26.3-7.6,50.1,9.9,47.9c3-4.4,2.7-2,3-10.7c0.1-4.8,0.3-9.6,0.4-14.4
			c0.4-36.1-8.9-41.6-15.2-46.8c-2.2-1.8-10.4-7.1-11.3-10.2c-0.4-1.4-1.2-4.3-2.4-8.2c-5.5-18.8-23.5-72.3-23.6-74.6
			c-1-15.4,18.4-26.8,32.5-9.3c16.8,20.9,70.5,112.6,78.3,140.2c6.6,23.2-4,59.9-9.8,83.5c-1.9,7.9-1.2,10.4,2.7,15.1
			c1.2,1.4,12.6,13.5,14.3,15.5C230.6,680.9,231.3,681.7,232,682.4z"/>
		<path class="st1" d="M42.4,724.7c-21.8-9.8-41-24.3-56.4-42.3c0.7-0.8,1.4-1.6,2.1-2.4c1.8-1.9,13.2-14.1,14.3-15.5
			c3.9-4.6,4.5-7.2,2.7-15.1C-0.6,626-11.2,589.2-4.6,566c7.8-27.6,61.6-119.3,78.3-140.2c14-17.5,33.4-6.1,32.5,9.3
			C106,437.5,88,491,82.5,509.8c-1.1,3.9-2,6.8-2.4,8.2c-0.9,3.1-9.1,8.4-11.3,10.2c-6.2,5.2-15.6,10.7-15.2,46.8
			c0.1,4.8,0.3,9.6,0.4,14.4c0.3,8.7,0,6.3,3,10.7c17.5,2.2,3.1-21.6,9.9-47.9c3.5-13.4,11.6-18.6,19.2-18.7
			c9.1-0.2,16,7.9,16.7,18.7c0.3,5.3,0.2,11.1,0.1,14.9c-0.4,29,1.8,54.8-8.9,81.2c-9.3,23-19.4,36.8-33.4,55
			c-3,3.9-15.2,17.5-17.3,20.2C43,723.9,42.7,724.3,42.4,724.7z"/>
	</g>
</g>
</svg>
