<?xml version="1.0" encoding="UTF-8"?>
<!DOCTYPE svg PUBLIC "-//W3C//DTD SVG 1.1//EN" "http://www.w3.org/Graphics/SVG/1.1/DTD/svg11.dtd">
<!-- Creator: CorelDRAW X7 -->
<svg xmlns="http://www.w3.org/2000/svg" xml:space="preserve" width="23.3858in" height="23.3858in" version="1.1" style="shape-rendering:geometricPrecision; text-rendering:geometricPrecision; image-rendering:optimizeQuality; fill-rule:evenodd; clip-rule:evenodd"
viewBox="0 0 23386 23386"
 xmlns:xlink="http://www.w3.org/1999/xlink">
 <defs>
  <style type="text/css">
   <![CDATA[
    .str0 {stroke:#2B2A29;stroke-width:6.94488}
    .fil1 {fill:#FEFEFE}
    .fil0 {fill:#1A1A1A}
    .fil2 {fill:#FEFEFE;fill-rule:nonzero}
   ]]>
  </style>
 </defs>
 <g id="Layer_x0020_1">
  <metadata id="CorelCorpID_0Corel-Layer"/>
  <g id="_1460159361824">
   <circle class="fil0 str0" cx="11693" cy="11693" r="11388"/>
   <path class="fil1" d="M14901 13331c105,674 225,1322 345,1989 82,455 233,1638 385,1989 225,518 1023,822 1543,274 486,-512 227,-1134 97,-1863 -800,-4496 -332,-4334 -2677,-4334 -695,0 -1725,60 -2380,-15 -148,-236 -255,-1090 -285,-1412l1966 -61c838,-25 1437,-15 1339,-692 -92,-633 -890,-468 -1501,-468 -672,0 -1353,10 -2024,-2 -113,-675 -140,-1145 -549,-1529 -640,-603 -2300,-395 -1962,1445l624 3530c117,600 410,958 992,1087 716,159 3131,-55 4087,62z"/>
   <path class="fil1" d="M10048 3510c-2049,577 -1186,3547 790,3041 735,-188 1375,-961 1130,-1925 -183,-720 -981,-1380 -1920,-1116z"/>
   <path class="fil2" d="M14336 17586c188,-222 520,-250 742,-62 221,187 249,519 61,741 -554,655 -1238,1171 -1999,1523 -760,353 -1596,541 -2451,541 -1611,0 -3069,-652 -4125,-1708 -1056,-1056 -1709,-2514 -1709,-4125 0,-1033 274,-2028 771,-2896 495,-866 1215,-1606 2108,-2131 250,-147 572,-63 719,187 146,250 62,572 -188,719 -728,428 -1317,1035 -1725,1748 -406,710 -630,1525 -630,2373 0,1320 535,2515 1399,3379 865,865 2060,1400 3380,1400 704,0 1389,-154 2011,-443 622,-288 1182,-710 1636,-1246z"/>
  </g>
 </g>
</svg>
