<?xml version="1.0" encoding="utf-8"?>
<!-- Generator: Adobe Illustrator 19.0.0, SVG Export Plug-In . SVG Version: 6.00 Build 0)  -->
<svg version="1.1" id="Layer_1" xmlns="http://www.w3.org/2000/svg" xmlns:xlink="http://www.w3.org/1999/xlink" x="0px" y="0px"
	 viewBox="-107 361 432 432" style="enable-background:new -107 361 432 432;" xml:space="preserve">
<style type="text/css">
	.st0{fill:#5DC7C8;}
	.st1{fill:#FEFEFE;}
</style>
<g id="Layer_x0020_1">
	<circle class="st0" cx="109" cy="577" r="216"/>
	<g>
		<path class="st1" d="M108.1,415C18,413.4-42.5,530.2,38.6,605.1c25.5,23.6,51.8,21.1,55.9,27.8c3.5,5.7,1.4,20.4-0.7,24.2
			c-13.8,6.9-51.3-7.9-52,14.3c-0.7,22.9,36.9,9.8,51.2,14.8c8.3,12.9-7.1,51.3,15.2,52.6c24,1.4,8.3-40.3,16.7-52.7
			c17.8-6.2,55.4,10.9,50.1-20.5c-8-14.3-45.4-1-51.6-9.4c-1.5-4.6-2.7-19,0-23.4c3.9-6.5,32.3-5.2,55.9-27.8
			C259.4,528.5,202.5,416.7,108.1,415z M122.7,603.7c-49.5,8.1-87.4-26.6-94.3-66.9C20,487.3,55,449.5,95.8,442.5
			c48.4-8.3,87.1,27.1,93.7,66.9C197.6,558.6,162.8,597.1,122.7,603.7z"/>
	</g>
</g>
</svg>
