<?xml version="1.0" encoding="UTF-8"?>
<!DOCTYPE svg PUBLIC "-//W3C//DTD SVG 1.1//EN" "http://www.w3.org/Graphics/SVG/1.1/DTD/svg11.dtd">
<!-- Creator: CorelDRAW X7 -->
<svg xmlns="http://www.w3.org/2000/svg" xml:space="preserve" width="23.3858in" height="23.3858in" version="1.1" style="shape-rendering:geometricPrecision; text-rendering:geometricPrecision; image-rendering:optimizeQuality; fill-rule:evenodd; clip-rule:evenodd"
viewBox="0 0 23386 23386"
 xmlns:xlink="http://www.w3.org/1999/xlink">
 <defs>
  <style type="text/css">
   <![CDATA[
    .fil0 {fill:#191919}
    .fil1 {fill:#FDFDFD}
   ]]>
  </style>
 </defs>
 <g id="Layer_x0020_1">
  <metadata id="CorelCorpID_0Corel-Layer"/>
  <path class="fil0" d="M12219 15188c74,-51 720,-699 805,-780 134,-129 277,-256 404,-389 37,-39 55,-66 93,-102 66,-63 253,-252 300,-282 299,302 600,597 903,900 154,153 298,297 452,450 153,153 264,291 297,608 66,632 -293,951 -548,1241l-882 922c-161,141 -290,315 -443,460 -134,126 -372,400 -443,459 -419,353 -941,276 -1163,-191 -241,-508 218,-896 510,-1168l460 -443c89,-84 363,-351 417,-472 -83,-124 -291,-297 -366,-376l-215 -225c-107,-112 -558,-556 -581,-612zm2269 -14088c-91,-81 -1309,-276 -1520,-294 -297,-60 -795,-68 -1110,-74 -1064,-20 -2134,128 -3140,407 -307,85 -599,185 -890,293 -574,213 -1078,463 -1605,760 -427,241 -1111,700 -1491,1034l-471 406c-66,56 -585,574 -661,669l-413 476c-322,382 -842,1146 -1074,1586 -316,599 -505,967 -739,1626 -936,2630 -840,5480 222,7978 118,277 241,547 380,804 71,131 138,263 212,385 74,123 148,245 220,365 210,348 390,570 612,876 147,201 361,424 469,567l213 226c48,48 91,103 139,154 139,149 585,567 764,711l494 396c2399,1821 5523,2581 8568,2027 2026,-369 3758,-1243 5276,-2565 74,-65 165,-138 230,-210 43,-49 109,-99 159,-146 130,-121 610,-630 713,-762 88,-112 178,-212 269,-329 168,-216 335,-443 497,-686 1031,-1547 1668,-3306 1815,-5282 110,-1474 -85,-2865 -501,-4183 -264,-839 -672,-1701 -1128,-2420 -77,-121 -150,-240 -236,-362 -51,-72 -193,-291 -243,-334 -22,-52 -62,-96 -98,-141l-326 -411 -560 -618 -773 -715c-220,-192 -1055,-833 -1181,-861 -43,-45 -102,-75 -155,-107 -555,-345 -1282,-701 -1893,-925 -239,-87 -539,-204 -789,-258 -48,-23 -185,-64 -255,-63zm-2825 3580c285,-2 542,46 775,152 377,171 504,352 558,377 7,35 32,35 89,110 233,301 374,550 433,969 72,520 -72,938 -306,1283 -187,277 -509,549 -918,692 -424,147 -965,125 -1352,-57 -803,-377 -1241,-1232 -1043,-2095 179,-777 846,-1396 1764,-1431zm-3795 11050c-1,-297 120,-507 258,-683l461 -478c163,-156 316,-304 478,-461l235 -240c59,-56 183,-191 241,-225l801 773c70,67 140,127 207,196 194,198 417,398 589,581 -14,37 -375,406 -427,464 -36,41 -669,714 -723,751l166 184c247,257 980,930 1146,1184 482,742 -446,1491 -1070,923 -111,-101 -390,-408 -500,-513 -68,-64 -103,-103 -162,-166 -108,-117 -221,-225 -329,-341l-404 -426c-37,-36 -55,-48 -87,-84l-317 -341c-290,-336 -562,-595 -563,-1098zm1668 -4447c-71,79 -137,142 -223,219l-432 458c-71,77 -146,145 -218,221 -194,207 -460,477 -677,665l-117 102c-511,437 -1146,191 -1229,-305 -90,-530 399,-821 673,-1092 302,-297 591,-591 889,-892l889 -891c147,-153 286,-306 438,-453 127,-123 297,-290 520,-370 357,-128 1259,-78 1687,-78 455,0 1282,-40 1666,111 389,152 669,585 958,823 73,61 156,156 225,226l1774 1775c1012,959 -166,1732 -747,1210l-678 -663c-41,-39 -72,-68 -113,-107 -44,-41 -62,-64 -107,-112 -70,-75 -156,-148 -232,-219l-220 -219c-79,-74 -148,-139 -226,-213 -67,-63 -184,-200 -227,-208l0 1532 -4270 0 -3 -1520z"/>
  <path class="fil1" d="M9536 11283l3 1520 4270 0 0 -1532c43,8 160,145 227,208 78,74 147,139 226,213l220 219c76,71 162,144 232,219 45,48 63,71 107,112 41,39 72,68 113,107l678 663c581,522 1759,-251 747,-1210l-1774 -1775c-69,-70 -152,-165 -225,-226 -289,-238 -569,-671 -958,-823 -384,-151 -1211,-111 -1666,-111 -428,0 -1330,-50 -1687,78 -223,80 -393,247 -520,370 -152,147 -291,300 -438,453l-889 891c-298,301 -587,595 -889,892 -274,271 -763,562 -673,1092 83,496 718,742 1229,305l117 -102c217,-188 483,-458 677,-665 72,-76 147,-144 218,-221l432 -458c86,-77 152,-140 223,-219z"/>
  <path class="fil1" d="M12996 5209c-54,-25 -181,-206 -558,-377 -233,-106 -490,-154 -775,-152 -918,35 -1585,654 -1764,1431 -198,863 240,1718 1043,2095 387,182 928,204 1352,57 409,-143 731,-415 918,-692 234,-345 378,-763 306,-1283 -59,-419 -200,-668 -433,-969 -57,-75 -82,-75 -89,-110z"/>
  <path class="fil1" d="M7868 15730c1,503 273,762 563,1098l317 341c32,36 50,48 87,84l404 426c108,116 221,224 329,341 59,63 94,102 162,166 110,105 389,412 500,513 624,568 1552,-181 1070,-923 -166,-254 -899,-927 -1146,-1184l-166 -184c54,-37 687,-710 723,-751 52,-58 413,-427 427,-464 -172,-183 -395,-383 -589,-581 -67,-69 -137,-129 -207,-196l-801 -773c-58,34 -182,169 -241,225l-235 240c-162,157 -315,305 -478,461l-461 478c-138,176 -259,386 -258,683z"/>
  <path class="fil1" d="M12219 15188c23,56 474,500 581,612l215 225c75,79 283,252 366,376 -54,121 -328,388 -417,472l-460 443c-292,272 -751,660 -510,1168 222,467 744,544 1163,191 71,-59 309,-333 443,-459 153,-145 282,-319 443,-460l882 -922c255,-290 614,-609 548,-1241 -33,-317 -144,-455 -297,-608 -154,-153 -298,-297 -452,-450 -303,-303 -604,-598 -903,-900 -47,30 -234,219 -300,282 -38,36 -56,63 -93,102 -127,133 -270,260 -404,389 -85,81 -731,729 -805,780z"/>
 </g>
</svg>
