<?xml version="1.0" encoding="UTF-8"?>
<!DOCTYPE svg PUBLIC "-//W3C//DTD SVG 1.1//EN" "http://www.w3.org/Graphics/SVG/1.1/DTD/svg11.dtd">
<!-- Creator: CorelDRAW X7 -->
<svg xmlns="http://www.w3.org/2000/svg" xml:space="preserve" width="152.4mm" height="152.4mm" version="1.1" style="shape-rendering:geometricPrecision; text-rendering:geometricPrecision; image-rendering:optimizeQuality; fill-rule:evenodd; clip-rule:evenodd"
viewBox="0 0 15240 15240"
 xmlns:xlink="http://www.w3.org/1999/xlink">
 <defs>
  <style type="text/css">
   <![CDATA[
    .fil1 {fill:#FEFEFE}
    .fil0 {fill:#5DC7C8}
    .fil2 {fill:#FEFEFE;fill-rule:nonzero}
   ]]>
  </style>
 </defs>
 <g id="Layer_x0020_1">
  <metadata id="CorelCorpID_0Corel-Layer"/>
  <circle class="fil0" cx="7620" cy="7620" r="7620"/>
  <g id="_2129549849824">
   <path class="fil1" d="M6207 12665l2820 -3c-22,-1299 64,-2033 -1387,-2033 -1497,0 -1405,691 -1433,2036z"/>
   <path class="fil1" d="M9435 11579l1493 4 -22 -1106c-25,-400 -342,-707 -648,-828 -349,-138 -944,-84 -1333,-48 -85,522 -220,512 -331,738 280,236 339,162 548,476 146,220 252,446 293,764z"/>
   <path class="fil1" d="M4328 10477l-20 1110 1490 -9c45,-338 102,-478 277,-734 240,-353 278,-245 566,-505l-37 -61c-174,-258 -232,-287 -295,-678 -360,-38 -1010,-74 -1330,51 -299,116 -627,437 -651,826z"/>
   <path class="fil1" d="M5417 7509c-1091,367 -631,2033 520,1727 1179,-314 650,-2121 -520,-1727z"/>
   <path class="fil1" d="M9245 7514c-1151,424 -538,2072 584,1706 401,-130 742,-557 568,-1127 -126,-411 -586,-787 -1152,-579z"/>
   <path class="fil1" d="M7323 8576c-252,90 -375,193 -495,403 -123,215 -152,479 -73,724 361,1128 2096,578 1721,-566 -139,-423 -602,-758 -1153,-561z"/>
   <path class="fil2" d="M3650 4254l7940 0c219,0 417,90 561,233 144,144 233,342 233,561l0 3734c0,219 -89,417 -233,561 -144,144 -342,233 -561,233l-692 0c-41,-40 -83,-78 -125,-112 -83,-68 -172,-110 -257,-183 70,-99 135,-231 223,-349l851 0c41,0 78,-17 106,-44 27,-27 44,-65 44,-106l0 -3734c0,-41 -17,-78 -44,-105 -28,-28 -65,-45 -106,-45l-7940 0c-41,0 -78,17 -106,45 -27,27 -44,64 -44,105l0 3734c0,41 17,79 44,106 28,27 65,44 106,44l851 0c88,120 146,251 222,349 -85,74 -172,117 -254,185 -42,34 -83,71 -123,110l-696 0c-219,0 -417,-89 -561,-233 -144,-144 -233,-342 -233,-561l0 -3734c0,-219 89,-417 233,-561 144,-143 342,-233 561,-233z"/>
  </g>
 </g>
</svg>
