<?xml version="1.0" encoding="UTF-8"?>
<!DOCTYPE svg PUBLIC "-//W3C//DTD SVG 1.1//EN" "http://www.w3.org/Graphics/SVG/1.1/DTD/svg11.dtd">
<!-- Creator: CorelDRAW X7 -->
<svg xmlns="http://www.w3.org/2000/svg" xml:space="preserve" width="23.3858in" height="23.3858in" version="1.1" style="shape-rendering:geometricPrecision; text-rendering:geometricPrecision; image-rendering:optimizeQuality; fill-rule:evenodd; clip-rule:evenodd"
viewBox="0 0 23386 23386"
 xmlns:xlink="http://www.w3.org/1999/xlink">
 <defs>
  <style type="text/css">
   <![CDATA[
    .str0 {stroke:#2B2A29;stroke-width:6.94488}
    .fil1 {fill:#FEFEFE}
    .fil0 {fill:#1A1A1A}
   ]]>
  </style>
 </defs>
 <g id="Layer_x0020_1">
  <metadata id="CorelCorpID_0Corel-Layer"/>
  <circle class="fil0 str0" cx="11693" cy="11693" r="10993"/>
  <path class="fil1" d="M11857 8794c-539,2 -1068,9 -1607,22 -282,6 -417,30 -521,234 -149,292 -457,815 -650,1093 -560,807 -1230,359 -1334,-118 -41,-187 46,-425 179,-673 191,-353 644,-1112 895,-1442 243,-319 513,-430 954,-475 713,-72 1737,-105 2466,-88 487,12 729,113 1231,440 357,232 1283,554 1647,981 387,454 727,1590 1067,1945 631,-154 1509,-718 1886,-107 511,829 -412,1047 -1044,1271 -757,267 -1363,576 -1811,-41 -326,-449 -557,-1233 -883,-1688 -527,926 -993,1883 -1478,2832l1808 985c187,101 446,204 619,373 341,333 280,1044 328,1542 52,548 101,1080 150,1632 56,619 166,1078 -223,1422 -572,407 -1293,161 -1465,-532 -193,-783 -204,-2342 -308,-2916l-1516 -779c-179,-86 -315,-189 -496,-274l-1001 -536c-588,-322 -902,-951 -729,-1627 58,-226 617,-1257 756,-1528l1080 -1948z"/>
  <path class="fil1" d="M10753 14674c-226,443 -399,967 -674,1336 -222,297 -531,478 -1064,379 -892,-165 -1793,-347 -2683,-511 -467,-86 -953,-173 -1011,-847 -38,-440 263,-921 843,-947 399,-17 2061,378 2654,466 117,-127 517,-930 619,-1144 273,515 623,949 1316,1268z"/>
  <circle class="fil1" cx="14820" cy="5962" r="1604"/>
 </g>
</svg>
