<?xml version="1.0" encoding="utf-8"?>
<!-- Generator: Adobe Illustrator 19.0.0, SVG Export Plug-In . SVG Version: 6.00 Build 0)  -->
<svg version="1.1" id="Layer_1" xmlns="http://www.w3.org/2000/svg" xmlns:xlink="http://www.w3.org/1999/xlink" x="0px" y="0px"
	 viewBox="-107 361 432 432" style="enable-background:new -107 361 432 432;" xml:space="preserve">
<style type="text/css">
	.st0{fill:#5DC7C8;}
	.st1{fill:#FEFEFE;}
</style>
<g id="Layer_x0020_1">
	<circle class="st0" cx="109" cy="577" r="216"/>
	<g>
		<path class="st1" d="M226.2,565.5c0.1-32.8,0.7-66.3,0.1-99.1c-17.8-2.8-39.7-9.7-58.1-14.2c-77-18.6-41.6-19.2-119.5-0.1
			c-19.6,4.8-40.3,10.5-59.4,14.4c-2.6,28.6-0.2,67.8-0.2,97.6c-0.1,34.2-3,58.3,11.2,86.8c15.2,30.7,45.6,55.7,73.8,71.9
			c36.2,20.7,30,21.5,66,1.1c11-6.2,20.4-12.5,29.5-19.9c18.3-14.8,34.5-30.9,45.2-52.3C229.9,621.8,226,601.1,226.2,565.5z
			 M182.8,545l-54.7,70.9c-6.1,7.9-12.3,15.9-18.8,24c-5,6.2-12.7,20.9-24.1,17.1c-6.4-2.2-49.3-62.2-55.3-71.8
			c-7.3-11.6,0.1-24.8,13.5-20.3c6,2,34.4,29.5,46.2,37.5c2.2-1.5,8-8.4,10.2-10.7c3.9-3.9,6.8-6.8,10.7-10.7l42.7-42.8
			c4.6-4.7,13.9-17.5,23.3-17.7C181.9,520.5,196.3,527.4,182.8,545z"/>
	</g>
</g>
</svg>
