<?xml version="1.0" encoding="utf-8"?>
<!-- Generator: Adobe Illustrator 16.0.0, SVG Export Plug-In . SVG Version: 6.00 Build 0)  -->
<!DOCTYPE svg PUBLIC "-//W3C//DTD SVG 1.1//EN" "http://www.w3.org/Graphics/SVG/1.1/DTD/svg11.dtd">
<svg version="1.1" id="Layer_1" xmlns="http://www.w3.org/2000/svg" xmlns:xlink="http://www.w3.org/1999/xlink" x="0px" y="0px"
	 width="432px" height="432px" viewBox="0 0 432 432" enable-background="new 0 0 432 432" xml:space="preserve">
<circle fill="#5DC7C8" cx="216" cy="216" r="216"/>
<g>
	<path fill="#FEFEFE" d="M235.814,129.033c-13.69-52.158-10.97-45.043-57.345-38.977c-31.436,6.689-53.915,13.55-84.33,31.776
		c-25.087,17.319-24.095,14.712-15.024,37.672c19.673,49.691,49.408,114.35,106.045,113.642c1.813-10.46,8.532-36.142,17.489-60.662
		c-22.648,1.956-39.09,13.776-50.854,34.045c-0.17-39.601,26.107-62.419,57.231-50.315c5.272-12.359,16.129-44.277,34.186-35.632
		C241.427,150.605,238.535,139.379,235.814,129.033z M148.309,156.699c-6.633,24.18-29.169,25.738-43.568,6.151
		c16.271,7.001,31.096,3.543,45.184-13.663C149.471,152.22,149.017,154.091,148.309,156.699z M212.57,128.749
		c-2.353,24.974-24.264,30.416-41.839,13.635c17.234,4.082,31.237-1.928,42.123-21.316
		C212.91,124.157,212.797,126.057,212.57,128.749z"/>
	<path fill="#FEFEFE" d="M341.971,213.307c-25.086-19.757-44.39-28.715-78.718-37.729c-29.905-5.812-27.354-6.889-37.417,15.646
		c-24.321,54.652-53.745,130.621,10.006,167.755c62.249,9.609,93.033-29.707,121.408-77.131
		C384.945,235.587,378.765,242.192,341.971,213.307z M272.353,244.97c0.481,2.665,0.737,4.563,0.907,7.625
		c-12.416-18.453-26.845-23.329-43.682-17.887C245.764,216.567,268.044,220.281,272.353,244.97z M292.479,321.052
		c-41.783,24.038-74.665-4.28-67.805-50.485c12.699,31.521,37.673,46.856,80.135,42.435
		C300.075,316.517,296.986,318.444,292.479,321.052z M333.212,286.554c-8.985-20.324-22.365-27.638-39.883-25.199
		c19.077-15.053,40.394-7.541,40.337,17.546C333.666,281.594,333.581,283.492,333.212,286.554z"/>
</g>
</svg>
