<?xml version="1.0" encoding="utf-8"?>
<!-- Generator: Adobe Illustrator 16.0.0, SVG Export Plug-In . SVG Version: 6.00 Build 0)  -->
<!DOCTYPE svg PUBLIC "-//W3C//DTD SVG 1.1//EN" "http://www.w3.org/Graphics/SVG/1.1/DTD/svg11.dtd">
<svg version="1.1" id="Layer_1" xmlns="http://www.w3.org/2000/svg" xmlns:xlink="http://www.w3.org/1999/xlink" x="0px" y="0px"
	 width="949.606px" height="850.961px" viewBox="0 0 949.606 850.961" enable-background="new 0 0 949.606 850.961"
	 xml:space="preserve">
<g>
	<path fill-rule="evenodd" clip-rule="evenodd" fill="#DEF0F4" d="M468.693,422.745l-14.886-235.463
		c67.749-4.283,134.061,20.823,181.984,68.901c91.99,92.286,91.75,241.671-0.536,333.66c-92.286,91.99-241.67,91.75-333.66-0.536
		s-91.75-241.67,0.536-333.661c40.58-40.449,94.494-64.75,151.676-68.365L468.693,422.745z"/>
	
		<path fill-rule="evenodd" clip-rule="evenodd" fill="none" stroke="#00A39E" stroke-width="14.0193" stroke-linecap="round" stroke-miterlimit="2.6131" d="
		M454.015,190.562c66.805-4.223,132.193,20.533,179.45,67.942c90.708,91,90.471,238.304-0.529,329.012
		s-238.304,90.472-329.013-0.529c-81.831-82.094-90.746-211.902-20.907-304.414"/>
	
		<path fill-rule="evenodd" clip-rule="evenodd" fill="none" stroke="#00A39E" stroke-width="14.0193" stroke-linecap="round" stroke-miterlimit="2.6131" d="
		M298.24,264.41c18.317-19.72,39.918-36.112,63.84-48.446"/>
	
		<path fill-rule="evenodd" clip-rule="evenodd" fill="none" stroke="#00A39E" stroke-width="14.0196" stroke-linecap="round" stroke-miterlimit="2.6131" d="
		M386.97,204.924c5.761-2.161,11.605-4.094,17.52-5.792"/>
	
		<polygon fill-rule="evenodd" clip-rule="evenodd" fill="none" stroke="#FFED00" stroke-width="9.0088" stroke-linecap="round" stroke-linejoin="round" stroke-miterlimit="22.9256" points="
		340.032,638.729 345.931,658.105 365.277,664.101 345.901,670 339.906,689.346 334.007,669.971 314.661,663.975 334.036,658.076 	
		"/>
	
		<polygon fill-rule="evenodd" clip-rule="evenodd" fill="none" stroke="#FFED00" stroke-width="9.0085" stroke-linecap="round" stroke-linejoin="round" stroke-miterlimit="22.9256" points="
		678.616,161.614 687.6,190.862 716.848,199.846 687.6,208.83 678.616,238.078 669.632,208.83 640.384,199.846 669.632,190.862 	"/>
	
		<polygon fill-rule="evenodd" clip-rule="evenodd" fill="none" stroke="#FFED00" stroke-width="6.0058" stroke-linecap="round" stroke-linejoin="round" stroke-miterlimit="22.9256" points="
		273.655,208.053 277.627,220.983 290.558,224.956 277.627,228.928 273.655,241.859 269.683,228.928 256.751,224.956 
		269.683,220.983 	"/>
</g>
<g>
	<linearGradient id="SVGID_1_" gradientUnits="userSpaceOnUse" x1="406.6641" y1="518.9619" x2="542.9601" y2="345.5682">
		<stop  offset="0" style="stop-color:#EC6801"/>
		<stop  offset="1" style="stop-color:#FBBA00"/>
	</linearGradient>
	<path fill-rule="evenodd" clip-rule="evenodd" fill="url(#SVGID_1_)" d="M370.2,323.703h209.205
		c15.273,0,27.769,12.496,27.769,27.769v161.611c0,15.272-12.495,27.769-27.769,27.769H370.2c-15.273,0-27.768-12.496-27.768-27.769
		V351.472C342.432,336.199,354.927,323.703,370.2,323.703z"/>
	<path fill-rule="evenodd" clip-rule="evenodd" fill="#FFFFFF" d="M385.052,364.385h179.502c10.722,0,19.494,8.772,19.494,19.494
		V497.33c0,10.722-8.772,19.494-19.494,19.494H385.052c-10.722,0-19.494-8.772-19.494-19.494V383.879
		C365.558,373.157,374.33,364.385,385.052,364.385z"/>
	<linearGradient id="SVGID_2_" gradientUnits="userSpaceOnUse" x1="455.1982" y1="461.5449" x2="502.0687" y2="393.3021">
		<stop  offset="0" style="stop-color:#EC6801"/>
		<stop  offset="1" style="stop-color:#FBBA00"/>
	</linearGradient>
	<path fill-rule="evenodd" clip-rule="evenodd" fill="url(#SVGID_2_)" d="M420.731,453.295c-5.03-4.209-5.697-11.701-1.487-16.732
		c4.209-5.03,11.702-5.696,16.732-1.487l27.556,22.992l59.405-59.405c4.646-4.646,12.179-4.646,16.825,0
		c4.646,4.646,4.646,12.179,0,16.825l-67.079,67.079l-0.014-0.014c-4.302,4.311-11.262,4.692-16.021,0.711L420.731,453.295z"/>
	<linearGradient id="SVGID_3_" gradientUnits="userSpaceOnUse" x1="522.3379" y1="328.6035" x2="549.1909" y2="317.5439">
		<stop  offset="0" style="stop-color:#EC6801"/>
		<stop  offset="1" style="stop-color:#FBBA00"/>
	</linearGradient>
	
		<path fill-rule="evenodd" clip-rule="evenodd" fill="url(#SVGID_3_)" stroke="#DDF0F9" stroke-width="10.5046" stroke-miterlimit="22.9256" d="
		M535.763,296.039L535.763,296.039c-8.812,0-16.021,7.209-16.021,16.021v22.029c0,8.812,7.21,16.021,16.021,16.021l0,0
		c8.813,0,16.021-7.209,16.021-16.021v-22.029C551.784,303.249,544.575,296.039,535.763,296.039z"/>
	<linearGradient id="SVGID_4_" gradientUnits="userSpaceOnUse" x1="400.9155" y1="328.6035" x2="427.7682" y2="317.5441">
		<stop  offset="0" style="stop-color:#EC6801"/>
		<stop  offset="1" style="stop-color:#FBBA00"/>
	</linearGradient>
	
		<path fill-rule="evenodd" clip-rule="evenodd" fill="url(#SVGID_4_)" stroke="#DDF0F9" stroke-width="10.5046" stroke-miterlimit="22.9256" d="
		M414.341,296.039L414.341,296.039c-8.812,0-16.021,7.209-16.021,16.021v22.029c0,8.812,7.209,16.021,16.021,16.021l0,0
		c8.812,0,16.021-7.209,16.021-16.021v-22.029C430.362,303.249,423.153,296.039,414.341,296.039z"/>
</g>
</svg>
