<?xml version="1.0" encoding="utf-8"?>
<!-- Generator: Adobe Illustrator 16.0.0, SVG Export Plug-In . SVG Version: 6.00 Build 0)  -->
<!DOCTYPE svg PUBLIC "-//W3C//DTD SVG 1.1//EN" "http://www.w3.org/Graphics/SVG/1.1/DTD/svg11.dtd">
<svg version="1.1" id="Layer_1" xmlns="http://www.w3.org/2000/svg" xmlns:xlink="http://www.w3.org/1999/xlink" x="0px" y="0px"
	 width="949.606px" height="850.961px" viewBox="0 0 949.606 850.961" enable-background="new 0 0 949.606 850.961"
	 xml:space="preserve">
<g>
	<g>
		<path fill-rule="evenodd" clip-rule="evenodd" fill="#DEF0F4" d="M468.693,422.745l-14.886-235.463
			c67.749-4.283,134.061,20.823,181.984,68.901c91.99,92.286,91.75,241.671-0.536,333.66s-241.67,91.749-333.66-0.536
			c-91.99-92.286-91.75-241.671,0.536-333.661c40.58-40.45,94.493-64.75,151.676-68.365L468.693,422.745z"/>
		
			<path fill-rule="evenodd" clip-rule="evenodd" fill="none" stroke="#00A39E" stroke-width="14.0193" stroke-linecap="round" stroke-miterlimit="2.6131" d="
			M454.015,190.562c66.805-4.223,132.193,20.533,179.45,67.942c90.708,91,90.471,238.304-0.529,329.012
			s-238.304,90.472-329.013-0.529c-81.831-82.094-90.746-211.902-20.907-304.414"/>
		
			<path fill-rule="evenodd" clip-rule="evenodd" fill="none" stroke="#00A39E" stroke-width="14.0193" stroke-linecap="round" stroke-miterlimit="2.6131" d="
			M298.24,264.41c18.317-19.72,39.918-36.112,63.84-48.446"/>
		
			<path fill-rule="evenodd" clip-rule="evenodd" fill="none" stroke="#00A39E" stroke-width="14.0196" stroke-linecap="round" stroke-miterlimit="2.6131" d="
			M386.97,204.924c5.761-2.161,11.605-4.094,17.52-5.792"/>
		
			<polygon fill-rule="evenodd" clip-rule="evenodd" fill="none" stroke="#FFED00" stroke-width="9.0088" stroke-linecap="round" stroke-linejoin="round" stroke-miterlimit="22.9256" points="
			340.032,638.729 345.931,658.105 365.277,664.101 345.901,670 339.906,689.346 334.007,669.97 314.661,663.975 334.036,658.076 		
			"/>
		
			<polygon fill-rule="evenodd" clip-rule="evenodd" fill="none" stroke="#FFED00" stroke-width="9.0085" stroke-linecap="round" stroke-linejoin="round" stroke-miterlimit="22.9256" points="
			678.616,161.614 687.6,190.862 716.848,199.846 687.6,208.83 678.616,238.078 669.632,208.83 640.384,199.846 669.632,190.862 		
			"/>
		
			<polygon fill-rule="evenodd" clip-rule="evenodd" fill="none" stroke="#FFED00" stroke-width="6.0058" stroke-linecap="round" stroke-linejoin="round" stroke-miterlimit="22.9256" points="
			273.655,208.053 277.627,220.983 290.558,224.956 277.627,228.928 273.655,241.859 269.683,228.928 256.751,224.956 
			269.683,220.983 		"/>
	</g>
	<g>
		<linearGradient id="SVGID_1_" gradientUnits="userSpaceOnUse" x1="403.7666" y1="541.6475" x2="474.3806" y2="423.382">
			<stop  offset="0" style="stop-color:#EC6801"/>
			<stop  offset="1" style="stop-color:#FBBA00"/>
		</linearGradient>
		<path fill-rule="evenodd" clip-rule="evenodd" fill="url(#SVGID_1_)" d="M503.912,539.593
			c-36.109-41.338-3.577-105.988,49.438-99.619c-80.085-71.901-241.94-21.597-208.702,99.581L503.912,539.593z"/>
		<linearGradient id="SVGID_2_" gradientUnits="userSpaceOnUse" x1="529.7188" y1="528.1787" x2="582.0535" y2="473.5685">
			<stop  offset="0" style="stop-color:#EC6801"/>
			<stop  offset="1" style="stop-color:#FBBA00"/>
		</linearGradient>
		<path fill-rule="evenodd" clip-rule="evenodd" fill="url(#SVGID_2_)" d="M555.882,554.389c29.474,0,53.513-24.038,53.513-53.512
			s-24.039-53.513-53.513-53.513s-53.513,24.039-53.513,53.513S526.408,554.389,555.882,554.389z"/>
		<path fill-rule="evenodd" clip-rule="evenodd" fill="#FFFFFF" d="M555.882,538.42c20.679,0,37.544-16.865,37.544-37.543
			c0-20.679-16.865-37.544-37.544-37.544c-20.678,0-37.543,16.865-37.543,37.544C518.339,521.555,535.204,538.42,555.882,538.42z"/>
		<linearGradient id="SVGID_3_" gradientUnits="userSpaceOnUse" x1="536.9141" y1="520.5928" x2="562.8439" y2="493.5568">
			<stop  offset="0" style="stop-color:#EC6801"/>
			<stop  offset="1" style="stop-color:#FBBA00"/>
		</linearGradient>
		<path fill-rule="evenodd" clip-rule="evenodd" fill="url(#SVGID_3_)" d="M531.082,525.743L542.19,523
			c1.095-0.262,0.837-0.152,1.523-0.852l19.852-19.853c0.723-0.723,8.944-8.817,9.333-9.399l-8.937-9.003
			c-0.639,0.438-1.772,1.707-2.375,2.309l-26.778,26.778c-0.634,0.631-0.707,0.488-0.934,1.44c-0.312,1.312-0.614,2.608-0.919,3.83
			C532.324,520.775,531.665,523.242,531.082,525.743z"/>
		<linearGradient id="SVGID_4_" gradientUnits="userSpaceOnUse" x1="572.46" y1="484.3691" x2="577.7474" y2="478.9172">
			<stop  offset="0" style="stop-color:#EC6801"/>
			<stop  offset="1" style="stop-color:#FBBA00"/>
		</linearGradient>
		<path fill-rule="evenodd" clip-rule="evenodd" fill="url(#SVGID_4_)" d="M566.963,480.893l8.938,9.003
			c0.742-0.509,2.181-2.122,2.902-2.835c1.729-1.708,1.87-2.893,1.879-4.718v-0.791c0-1.49-1.122-3.135-1.946-3.858
			c-1.238-1.087-2.723-1.648-4.206-1.682h-0.281c-1.511,0.034-3.005,0.615-4.22,1.746
			C569.367,478.372,567.373,480.279,566.963,480.893z"/>
		<path fill-rule="evenodd" clip-rule="evenodd" fill="#FFFFFF" d="M476.502,522.15c-17.043-39.096,9.838-79.368,34.681-86.271
			c-72.379-29.383-161.284,18.065-148.336,86.355L476.502,522.15z"/>
		<linearGradient id="SVGID_5_" gradientUnits="userSpaceOnUse" x1="433.623" y1="369.5186" x2="489.9752" y2="310.7162">
			<stop  offset="0" style="stop-color:#EC6801"/>
			<stop  offset="1" style="stop-color:#FBBA00"/>
		</linearGradient>
		<path fill-rule="evenodd" clip-rule="evenodd" fill="url(#SVGID_5_)" d="M461.795,397.742c31.736,0,57.62-25.884,57.62-57.62
			c0-31.736-25.884-57.621-57.62-57.621s-57.62,25.884-57.62,57.621C404.175,371.857,430.059,397.742,461.795,397.742z"/>
		<path fill-rule="evenodd" clip-rule="evenodd" fill="#FFFFFF" d="M461.795,379.304c21.581,0,39.183-17.601,39.183-39.183
			c0-21.581-17.602-39.183-39.183-39.183c-21.582,0-39.183,17.602-39.183,39.183C422.612,361.703,440.213,379.304,461.795,379.304z"
			/>
	</g>
</g>
</svg>
