<?xml version="1.0" encoding="utf-8"?>
<!-- Generator: Adobe Illustrator 16.0.0, SVG Export Plug-In . SVG Version: 6.00 Build 0)  -->
<!DOCTYPE svg PUBLIC "-//W3C//DTD SVG 1.1//EN" "http://www.w3.org/Graphics/SVG/1.1/DTD/svg11.dtd">
<svg version="1.1" id="Layer_1" xmlns="http://www.w3.org/2000/svg" xmlns:xlink="http://www.w3.org/1999/xlink" x="0px" y="0px"
	 width="949.606px" height="850.961px" viewBox="0 0 949.606 850.961" enable-background="new 0 0 949.606 850.961"
	 xml:space="preserve">
<g>
	<g>
		<path fill-rule="evenodd" clip-rule="evenodd" fill="#DEF0F4" d="M468.693,422.745l-14.886-235.463
			c67.749-4.283,134.061,20.823,181.984,68.901c91.99,92.286,91.75,241.671-0.536,333.66c-92.286,91.99-241.67,91.75-333.66-0.536
			s-91.75-241.67,0.536-333.66c40.58-40.45,94.494-64.75,151.676-68.365L468.693,422.745z"/>
		
			<path fill-rule="evenodd" clip-rule="evenodd" fill="none" stroke="#00A39E" stroke-width="14.0193" stroke-linecap="round" stroke-miterlimit="2.6131" d="
			M454.015,190.562c66.805-4.224,132.193,20.533,179.45,67.941c90.708,91,90.471,238.304-0.529,329.012
			s-238.304,90.472-329.013-0.528c-81.831-82.095-90.746-211.903-20.907-304.414"/>
		
			<path fill-rule="evenodd" clip-rule="evenodd" fill="none" stroke="#00A39E" stroke-width="14.0193" stroke-linecap="round" stroke-miterlimit="2.6131" d="
			M298.24,264.41c18.317-19.719,39.918-36.111,63.84-48.446"/>
		
			<path fill-rule="evenodd" clip-rule="evenodd" fill="none" stroke="#00A39E" stroke-width="14.0196" stroke-linecap="round" stroke-miterlimit="2.6131" d="
			M386.97,204.924c5.761-2.161,11.605-4.094,17.52-5.792"/>
		
			<polygon fill-rule="evenodd" clip-rule="evenodd" fill="none" stroke="#FFED00" stroke-width="9.0088" stroke-linecap="round" stroke-linejoin="round" stroke-miterlimit="22.9256" points="
			340.032,638.729 345.931,658.105 365.277,664.101 345.901,670 339.906,689.347 334.007,669.971 314.661,663.976 334.036,658.076 
					"/>
		
			<polygon fill-rule="evenodd" clip-rule="evenodd" fill="none" stroke="#FFED00" stroke-width="9.0085" stroke-linecap="round" stroke-linejoin="round" stroke-miterlimit="22.9256" points="
			678.616,161.614 687.6,190.862 716.848,199.846 687.6,208.831 678.616,238.078 669.632,208.831 640.384,199.846 669.632,190.862 
					"/>
		
			<polygon fill-rule="evenodd" clip-rule="evenodd" fill="none" stroke="#FFED00" stroke-width="6.0058" stroke-linecap="round" stroke-linejoin="round" stroke-miterlimit="22.9256" points="
			273.655,208.053 277.627,220.984 290.558,224.956 277.627,228.928 273.655,241.859 269.683,228.928 256.751,224.956 
			269.683,220.984 		"/>
	</g>
	<g>
		<linearGradient id="SVGID_1_" gradientUnits="userSpaceOnUse" x1="415.6235" y1="486.0381" x2="537.2567" y2="359.1164">
			<stop  offset="0" style="stop-color:#EC6801"/>
			<stop  offset="1" style="stop-color:#FBBA00"/>
		</linearGradient>
		<path fill-rule="evenodd" clip-rule="evenodd" fill="url(#SVGID_1_)" d="M476.431,546.957c68.501,0,124.371-55.87,124.371-124.371
			c0-68.501-55.87-124.371-124.371-124.371c-68.5,0-124.37,55.87-124.37,124.371C352.061,491.087,407.93,546.957,476.431,546.957z"
			/>
		<path fill-rule="evenodd" clip-rule="evenodd" fill="#FFFFFF" d="M476.431,528.943c58.58,0,106.357-47.777,106.357-106.357
			s-47.777-106.357-106.357-106.357c-58.579,0-106.357,47.778-106.357,106.357S417.852,528.943,476.431,528.943z"/>
		<linearGradient id="SVGID_2_" gradientUnits="userSpaceOnUse" x1="449.9004" y1="396.54" x2="431.708" y2="385.2905">
			<stop  offset="0" style="stop-color:#EC6801"/>
			<stop  offset="1" style="stop-color:#FBBA00"/>
		</linearGradient>
		<path fill-rule="evenodd" clip-rule="evenodd" fill="url(#SVGID_2_)" d="M440.806,372.165L440.806,372.165
			c-6.112,0-11.112,5-11.112,11.112v15.279c0,6.112,5,11.113,11.112,11.113h0c6.112,0,11.112-5.001,11.112-11.113v-15.279
			C451.917,377.165,446.917,372.165,440.806,372.165z"/>
		<linearGradient id="SVGID_3_" gradientUnits="userSpaceOnUse" x1="517.3682" y1="396.5391" x2="499.1758" y2="385.2896">
			<stop  offset="0" style="stop-color:#EC6801"/>
			<stop  offset="1" style="stop-color:#FBBA00"/>
		</linearGradient>
		<path fill-rule="evenodd" clip-rule="evenodd" fill="url(#SVGID_3_)" d="M508.275,372.165L508.275,372.165
			c-6.112,0-11.113,5-11.113,11.112v15.279c0,6.112,5.001,11.113,11.112,11.113h0.001c6.111,0,11.111-5.001,11.111-11.113v-15.279
			C519.387,377.165,514.387,372.165,508.275,372.165z"/>
		<linearGradient id="SVGID_4_" gradientUnits="userSpaceOnUse" x1="323.5566" y1="477.4121" x2="385.0413" y2="451.0679">
			<stop  offset="0" style="stop-color:#EC6801"/>
			<stop  offset="1" style="stop-color:#FBBA00"/>
		</linearGradient>
		<path fill-rule="evenodd" clip-rule="evenodd" fill="url(#SVGID_4_)" d="M348.941,412.246
			c-12.442-12.863-26.013-1.583-21.155,11.103c-4.28,1.299-7.717,0.494-10.888,5.722c-3.084,5.085-1.817,10.21-0.29,13.294
			c-4.476,1.67-10.549,1.552-12.26,10.135c-1.075,5.396,3.17,12.305,4.827,16.124c4.559,10.504,8.657,20.252,13.394,30.684
			c11.837,26.07,42.984,30.146,62.116,16.811c9.754-6.8,17.258-19.599,17.919-33.312c0.594-12.326-5.813-23.737-9.549-32.345
			c-1.594-3.671-4.425-12.01-8.015-14.765c-8.687-6.668-5.355,4.172-11.732-10.545c-2.742-6.33-5.652-19.187-17.228-16.986
			C352.516,408.843,351.237,410.169,348.941,412.246z"/>
		<path fill-rule="evenodd" clip-rule="evenodd" fill="#FFFFFF" d="M350.929,467.189c-0.01,0.004-2.153,2.683-4.604-2.512
			l-11.508-26.799c-1.456-3.144-6.419-7.249-9.582-2.509c-2.532,3.795,0.585,8.496,1.765,11.204l9.236,21.279
			c1.343,3.115,5.188,8.522,2.123,11.299c-3.897,1.628-5.76-6.019-7.795-10.604c-3.872-8.723-5.756-17.252-10.465-18.016
			c-2.536-0.411-4.87,1.206-5.499,3.865c-0.756,3.194,13.984,35.048,15.795,38.937c16.492,35.414,69.545,17.424,61.199-20.7
			c-1.502-6.865-7.729-19.363-10.568-25.995c-3.033-7.084-9.808-4.02-9.014,1.524c0.519,3.626,4.225,8.581,5.154,13.168
			c-2.206,3.277-5.033,2.39-7.21,7.013c-2.851,6.053,1.857,8.844-2.416,10.42c-3.982,1.469-8.392-9.061,3.052-19.207
			c-1.972-7.259-7.972-11.056-1.06-20.924c-1.022-2.663-6.829-17.077-8.691-18.517c-3.344-2.585-8.103-0.552-8.154,4.053
			c-0.014,1.34,3.429,8.643,4.055,10.084c1.413,3.256,8.415,17.262,7.743,19.761c-3.145,11.705-15.244-24.117-18.966-31.946
			c-3.333-7.012-14.565-6.515-8.708,6.722l12.463,28.699C350.404,460.084,353.85,465.102,350.929,467.189z"/>
		<linearGradient id="SVGID_5_" gradientUnits="userSpaceOnUse" x1="460.6543" y1="478.7559" x2="482.5965" y2="427.6784">
			<stop  offset="0" style="stop-color:#EC6801"/>
			<stop  offset="1" style="stop-color:#FBBA00"/>
		</linearGradient>
		<path fill-rule="evenodd" clip-rule="evenodd" fill="url(#SVGID_5_)" d="M536.868,438.478
			c-3.386,30.837-29.437,54.185-60.459,54.185c-30.883,0-56.864-23.146-60.417-53.824L536.868,438.478z"/>
	</g>
</g>
</svg>
