<?xml version="1.0" encoding="utf-8"?>
<!-- Generator: Adobe Illustrator 16.0.0, SVG Export Plug-In . SVG Version: 6.00 Build 0)  -->
<!DOCTYPE svg PUBLIC "-//W3C//DTD SVG 1.1//EN" "http://www.w3.org/Graphics/SVG/1.1/DTD/svg11.dtd">
<svg version="1.1" id="Layer_1" xmlns="http://www.w3.org/2000/svg" xmlns:xlink="http://www.w3.org/1999/xlink" x="0px" y="0px"
	 width="24px" height="24px" viewBox="0 0 24 24" enable-background="new 0 0 24 24" xml:space="preserve" style="fill: #F3B001">
<g id="Bounding_Boxes">
	<path fill="none" d="M0,0h24v24H0V0z"/>
</g>
<g id="ui_x5F_spec_x5F_header">
</g>
<g>
	<rect x="6.674" y="5.974" width="7.545" height="1.677"/>
	<rect x="6.674" y="9.326" width="5.4" height="1.677"/>
	<path d="M19.982,15.943c0-1.822-1.275-3.342-2.984-3.756l0.066-9.66H4.018v17.199l6.707-0.043c1.288,0,2.219-0.006,2.908-0.02
		l-1.061,1.383l1.33,1.02l1.754-2.285c0.139,0.014,0.275,0.041,0.418,0.041c0.131,0,0.254-0.025,0.381-0.039l1.789,2.314
		l1.326-1.025l-1.43-1.85C19.242,18.537,19.982,17.33,19.982,15.943z M5.694,18.021V4.204h9.683l-0.055,7.938
		c-1.799,0.349-3.159,1.917-3.159,3.802c0,0.715,0.209,1.377,0.55,1.951C10.897,17.93,8.053,17.982,5.694,18.021z"/>
</g>
</svg>
