<?xml version="1.0" encoding="utf-8"?>
<!-- Generator: Adobe Illustrator 16.0.0, SVG Export Plug-In . SVG Version: 6.00 Build 0)  -->
<!DOCTYPE svg PUBLIC "-//W3C//DTD SVG 1.1//EN" "http://www.w3.org/Graphics/SVG/1.1/DTD/svg11.dtd">
<svg version="1.1" id="Layer_1" xmlns="http://www.w3.org/2000/svg" xmlns:xlink="http://www.w3.org/1999/xlink" x="0px" y="0px"
	 width="24px" height="24px" viewBox="0 0 24 24" enable-background="new 0 0 24 24" xml:space="preserve">
<g id="Bounding_Boxes">
	<path fill="none" d="M0,0h24v24H0V0z"/>
</g>
<path stroke="#000000" stroke-width="0.5" stroke-miterlimit="10" d="M13.48,3.753v1.268h1.848L13.414,7.07
	c-0.649-0.354-1.543-0.707-2.334-0.707c-2.522,0-4.574,2.051-4.574,4.574c0,2.264,1.656,4.146,3.82,4.507v0.605v1.345H8.981v1.507
	h1.345v0.126v1.22h1.508v-1.22v-0.126h1.345v-1.507h-1.345V16.05v-0.605c2.163-0.36,3.82-2.243,3.82-4.507
	c0-1.186-0.458-2.265-1.199-3.079l1.951-2.202l-0.013,2.141l1.101-0.005V3.753H13.48z M11.08,14.005
	c-1.691,0-3.067-1.376-3.067-3.067S9.389,7.87,11.08,7.87s3.068,1.376,3.068,3.067S12.771,14.005,11.08,14.005z"/>
<g id="ui_x5F_spec_x5F_header">
</g>
</svg>
