<?xml version="1.0" encoding="utf-8"?>
<!-- Generator: Adobe Illustrator 16.0.0, SVG Export Plug-In . SVG Version: 6.00 Build 0)  -->
<!DOCTYPE svg PUBLIC "-//W3C//DTD SVG 1.1//EN" "http://www.w3.org/Graphics/SVG/1.1/DTD/svg11.dtd">
<svg version="1.1" id="Layer_1" xmlns="http://www.w3.org/2000/svg" xmlns:xlink="http://www.w3.org/1999/xlink" x="0px" y="0px"
	 width="24px" height="24px" viewBox="0 0 24 24" enable-background="new 0 0 24 24" xml:space="preserve">
<g id="Header_x2F_BG" display="none">
	<rect x="-50" y="-358" display="inline" fill="#F1F1F2" width="520" height="520"/>
</g>
<g id="Bounding_Boxes">
	<g id="ui_x5F_spec_x5F_header_copy_3">
	</g>
	<path fill="none" d="M0,0h24v24H0V0z"/>
</g>
<g id="Rounded" display="none">
	<g id="ui_x5F_spec_x5F_header_copy_5" display="inline">
	</g>
	<path display="inline" d="M10.79,16.29L10.79,16.29c0.39,0.39,1.02,0.39,1.41,0l3.59-3.59c0.39-0.39,0.39-1.02,0-1.41L12.2,7.7
		c-0.39-0.39-1.02-0.39-1.41,0l0,0c-0.39,0.39-0.39,1.02,0,1.41L12.67,11H4c-0.55,0-1,0.45-1,1l0,0c0,0.55,0.45,1,1,1h8.67
		l-1.88,1.88C10.4,15.27,10.41,15.91,10.79,16.29z M19,3H5C3.89,3,3,3.9,3,5v3c0,0.55,0.45,1,1,1l0,0c0.55,0,1-0.45,1-1V6
		c0-0.55,0.45-1,1-1h12c0.55,0,1,0.45,1,1v12c0,0.55-0.45,1-1,1H6c-0.55,0-1-0.45-1-1v-2c0-0.55-0.45-1-1-1l0,0c-0.55,0-1,0.45-1,1
		v3c0,1.1,0.9,2,2,2h14c1.1,0,2-0.9,2-2V5C21,3.9,20.1,3,19,3z"/>
</g>
<g id="Sharp" display="none">
	<g id="ui_x5F_spec_x5F_header_copy_4" display="inline">
	</g>
	<path display="inline" d="M10.09,15.59L11.5,17l5-5l-5-5l-1.41,1.41L12.67,11H3v2h9.67L10.09,15.59z M21,3H3v6h2V5h14v14H5v-4H3v6
		h18V3z"/>
</g>
<g id="ui_x5F_spec_x5F_header">
</g>
<polygon points="6.83,13 16.5,13 16.5,11 6.83,11 9.41,8.41 8,7 3,12 8,17 9.41,15.59 "/>
<path d="M19,3H5C3.89,3,3,3.9,3,5v4h2V5h14v14H5v-4H3v4c0,1.1,0.89,2,2,2h14c1.1,0,2-0.9,2-2V5C21,3.9,20.1,3,19,3z"/>
<g id="Duotone" display="none">
	<g id="ui_x5F_spec_x5F_header_copy_2" display="inline">
	</g>
	<g display="inline">
		<path d="M10.09,15.59L11.5,17l5-5l-5-5l-1.41,1.41L12.67,11H3v2h9.67L10.09,15.59z M19,3H5C3.89,3,3,3.9,3,5v4h2V5h14v14H5v-4H3v4
			c0,1.1,0.89,2,2,2h14c1.1,0,2-0.9,2-2V5C21,3.9,20.1,3,19,3z"/>
	</g>
</g>
<g id="Fill" display="none">
	<g id="ui_x5F_spec_x5F_header_copy" display="inline">
	</g>
	<path display="inline" d="M10.09,15.59L11.5,17l5-5l-5-5l-1.41,1.41L12.67,11H3v2h9.67L10.09,15.59z M19,3H5C3.89,3,3,3.9,3,5v4h2
		V5h14v14H5v-4H3v4c0,1.1,0.89,2,2,2h14c1.1,0,2-0.9,2-2V5C21,3.9,20.1,3,19,3z"/>
</g>
<g id="nyt_x5F_exporter_x5F_info" display="none">
</g>
</svg>
